<svg id="Layer_1" data-name="Layer 1" xmlns="http://www.w3.org/2000/svg" viewBox="0 0 778.46 133.53"><defs><style>.cls-1{fill:#1854e8;}.cls-2{fill:#192935;}</style></defs><path class="cls-1" d="M65.23,84.6a7,7,0,0,1,1.36,4.53q0,4-4.8,6.74a43.21,43.21,0,0,1-10,4,41.34,41.34,0,0,1-10.63,1.49q-15.3,0-24.24-8.82T8,68.39a37,37,0,0,1,3.89-17.24,28.26,28.26,0,0,1,11-11.67,31.06,31.06,0,0,1,16-4.15,28.76,28.76,0,0,1,14.9,3.76,25.54,25.54,0,0,1,9.86,10.63,35.35,35.35,0,0,1,3.5,16.21c0,3.71-1.65,5.57-4.93,5.57H23.94q.78,9,5,13.16c2.86,2.81,7,4.21,12.45,4.21a23.66,23.66,0,0,0,7.32-1A69.71,69.71,0,0,0,56,85q3.88-2.07,5.7-2.07A4.36,4.36,0,0,1,65.23,84.6ZM28.67,50.89q-4,4.15-4.73,11.93h29.3q-.27-7.91-3.89-12T39.24,46.74Q32.63,46.74,28.67,50.89Z"/><path class="cls-1" d="M122.27,41.88q6.41,6.56,6.41,19.9V93.41a7.33,7.33,0,0,1-2.07,5.51,7.85,7.85,0,0,1-5.7,2,7.58,7.58,0,0,1-5.51-2.07,7.25,7.25,0,0,1-2.14-5.45V90.56a17,17,0,0,1-6.94,7.91,20.78,20.78,0,0,1-10.95,2.85,25.52,25.52,0,0,1-11.54-2.59,20.58,20.58,0,0,1-8.17-7.13,18,18,0,0,1-3-10.12q0-7,3.57-11t11.6-5.83q8-1.81,22.17-1.81h3.24v-3q0-6.34-2.73-9.26t-8.81-2.92a28.12,28.12,0,0,0-7.65,1.1q-3.88,1.11-9.2,3.18a13,13,0,0,1-4.93,1.68,4.86,4.86,0,0,1-3.82-1.68,6.41,6.41,0,0,1-1.5-4.41,6.64,6.64,0,0,1,1.11-3.83,10.47,10.47,0,0,1,3.69-3,42.31,42.31,0,0,1,10.83-3.89,55.83,55.83,0,0,1,12.38-1.43Q115.85,35.33,122.27,41.88Zm-13.1,43.43a15.69,15.69,0,0,0,4.09-11.22V71.37h-2.34a89.18,89.18,0,0,0-13.48.78q-4.8.78-6.87,2.72a7,7,0,0,0-2.07,5.32A8.78,8.78,0,0,0,91.41,87a10.28,10.28,0,0,0,7.2,2.66A13.81,13.81,0,0,0,109.17,85.31Z"/><path class="cls-1" d="M140.09,95.74a7.72,7.72,0,0,1-4.15-7,6.15,6.15,0,0,1,1.43-4.21,4.49,4.49,0,0,1,3.5-1.62q2.2,0,6.09,2.07a56,56,0,0,0,7.59,3,30.88,30.88,0,0,0,8.75,1q5.44,0,8.49-1.81a5.62,5.62,0,0,0,3-5.06,4.88,4.88,0,0,0-1.23-3.5,11.4,11.4,0,0,0-4.41-2.4,93.42,93.42,0,0,0-9.65-2.52Q148,71.37,143,67.09T138,55.3A17,17,0,0,1,141.39,45a21.78,21.78,0,0,1,9.27-7.13,33.83,33.83,0,0,1,13.41-2.53,40.52,40.52,0,0,1,10.5,1.36,31.89,31.89,0,0,1,9.08,4c2.76,1.73,4.15,4,4.15,6.87a6.63,6.63,0,0,1-1.43,4.34,4.35,4.35,0,0,1-3.5,1.75,7,7,0,0,1-2.79-.58,37.73,37.73,0,0,1-3.43-1.75,54.76,54.76,0,0,0-6.48-2.92,20.23,20.23,0,0,0-6.74-1,13.12,13.12,0,0,0-7.59,1.94,6.15,6.15,0,0,0-2.79,5.32,5.4,5.4,0,0,0,2.86,4.93q2.85,1.68,11,3.37a63.34,63.34,0,0,1,13.61,4.14,15.91,15.91,0,0,1,7.06,5.84,16.86,16.86,0,0,1,2.14,8.94A16.62,16.62,0,0,1,182.42,96q-7.33,5.32-19.51,5.32Q148.78,101.32,140.09,95.74Z"/><path class="cls-1" d="M243.74,36.82a7.05,7.05,0,0,1,3.82-1.1,8.16,8.16,0,0,1,5.38,2,6.27,6.27,0,0,1,2.4,5,6.63,6.63,0,0,1-.78,3l-35.39,74.16a7.25,7.25,0,0,1-6.87,4.4,7.94,7.94,0,0,1-5.25-1.88,5.86,5.86,0,0,1-2.27-4.73,8.35,8.35,0,0,1,.78-3.24l8.81-18.54L190.26,45.7a6.57,6.57,0,0,1-.65-3,6.3,6.3,0,0,1,2.53-5,8.88,8.88,0,0,1,5.77-2.08,7.64,7.64,0,0,1,4,1.1,7.36,7.36,0,0,1,2.85,3.44l18.15,40.06,18-39.93A7.5,7.5,0,0,1,243.74,36.82Z"/><path class="cls-2" d="M260.78,21.66a8.17,8.17,0,0,1-2.59-6.29,8,8,0,0,1,2.59-6.22,11.55,11.55,0,0,1,13.94,0,7.86,7.86,0,0,1,2.65,6.22,8.17,8.17,0,0,1-2.59,6.29,11.45,11.45,0,0,1-14,0ZM262,99.05a7.31,7.31,0,0,1-2.27-5.77v-50a7.1,7.1,0,0,1,2.27-5.7,8.54,8.54,0,0,1,5.77-1.95,8.77,8.77,0,0,1,5.83,1.95,7,7,0,0,1,2.34,5.7v50a7.19,7.19,0,0,1-2.34,5.77,8.61,8.61,0,0,1-5.83,2A8.38,8.38,0,0,1,262,99.05Z"/><path class="cls-2" d="M341.28,41.81q5.58,6.49,5.58,19.58V93.28A7.59,7.59,0,0,1,344.72,99a8.13,8.13,0,0,1-5.9,2.07,8.35,8.35,0,0,1-6-2.07,7.47,7.47,0,0,1-2.2-5.71v-31q0-7.39-2.79-10.76t-8.75-3.37q-7,0-11.22,4.4t-4.21,11.8V93.28a7.47,7.47,0,0,1-2.2,5.71,8.37,8.37,0,0,1-6,2.07,8.15,8.15,0,0,1-5.9-2.07,7.62,7.62,0,0,1-2.13-5.71V43.11a7.11,7.11,0,0,1,2.2-5.44,8.37,8.37,0,0,1,6-2.08,7.71,7.71,0,0,1,5.51,2,6.86,6.86,0,0,1,2.14,5.25v3.5A21.93,21.93,0,0,1,312,38.19a26.14,26.14,0,0,1,12.31-2.86Q335.72,35.33,341.28,41.81Z"/><path class="cls-2" d="M405.13,36.76A6.74,6.74,0,0,1,409,35.59a8.16,8.16,0,0,1,5.38,2,6.27,6.27,0,0,1,2.4,5A6.85,6.85,0,0,1,416,45.7L392,95.87a8.51,8.51,0,0,1-3.3,3.76,8.93,8.93,0,0,1-4.73,1.3,9.35,9.35,0,0,1-4.74-1.3,8.2,8.2,0,0,1-3.43-3.76L351.65,45.7a6.57,6.57,0,0,1-.64-3,6.32,6.32,0,0,1,2.52-5,8.88,8.88,0,0,1,5.77-2.08c3.11,0,5.4,1.52,6.87,4.54l18.15,40.06,18-39.93A7.89,7.89,0,0,1,405.13,36.76Z"/><path class="cls-2" d="M473.84,84.6a7,7,0,0,1,1.36,4.53q0,4-4.8,6.74a43.38,43.38,0,0,1-10,4,41.34,41.34,0,0,1-10.63,1.49q-15.3,0-24.24-8.82T416.6,68.39a37,37,0,0,1,3.89-17.24,28.26,28.26,0,0,1,11-11.67,31.06,31.06,0,0,1,16-4.15,28.76,28.76,0,0,1,14.9,3.76,25.54,25.54,0,0,1,9.86,10.63,35.35,35.35,0,0,1,3.5,16.21c0,3.71-1.65,5.57-4.93,5.57H432.55q.78,9,5.05,13.16t12.45,4.21a23.66,23.66,0,0,0,7.32-1,69.71,69.71,0,0,0,7.2-2.86q3.89-2.07,5.7-2.07A4.36,4.36,0,0,1,473.84,84.6ZM437.28,50.89q-4,4.15-4.73,11.93h29.3q-.27-7.91-3.89-12t-10.12-4.08C443.44,46.74,439.91,48.12,437.28,50.89Z"/><path class="cls-2" d="M537.55,41.81q5.58,6.49,5.58,19.58V93.28A7.62,7.62,0,0,1,541,99a8.15,8.15,0,0,1-5.9,2.07,8.33,8.33,0,0,1-6-2.07,7.48,7.48,0,0,1-2.21-5.71v-31q0-7.39-2.79-10.76t-8.75-3.37q-7,0-11.21,4.4T500,64.37V93.28A7.48,7.48,0,0,1,497.75,99a8.35,8.35,0,0,1-6,2.07,8.13,8.13,0,0,1-5.9-2.07,7.62,7.62,0,0,1-2.14-5.71V43.11A7.11,7.11,0,0,1,486,37.67a8.33,8.33,0,0,1,6-2.08,7.72,7.72,0,0,1,5.51,2,6.86,6.86,0,0,1,2.14,5.25v3.5a21.9,21.9,0,0,1,8.68-8.16,26.18,26.18,0,0,1,12.32-2.86Q532,35.33,537.55,41.81Z"/><path class="cls-2" d="M593.81,94.84a5.28,5.28,0,0,1-2.52,4.73q-2.53,1.62-7.2,1.36l-3.5-.26q-21.78-1.56-21.78-23.33V49.07h-6.48A8.21,8.21,0,0,1,547,47.52,5.57,5.57,0,0,1,545.07,43,5.57,5.57,0,0,1,547,38.44a8.27,8.27,0,0,1,5.38-1.55h6.48V25A7.25,7.25,0,0,1,561,19.39a8.33,8.33,0,0,1,6-2.08,8.17,8.17,0,0,1,5.83,2.08A7.28,7.28,0,0,1,575,25V36.89h11a8.25,8.25,0,0,1,5.38,1.55A5.54,5.54,0,0,1,593.29,43a5.54,5.54,0,0,1-1.88,4.54A8.2,8.2,0,0,1,586,49.07H575V78.5q0,9.6,8.81,10.24l3.5.26Q593.81,89.39,593.81,94.84Z"/><path class="cls-2" d="M608.91,97.3a27.79,27.79,0,0,1-11.34-11.54,36.54,36.54,0,0,1-4-17.5,36.25,36.25,0,0,1,4-17.44,28,28,0,0,1,11.34-11.47,38.17,38.17,0,0,1,34.1,0,27.59,27.59,0,0,1,11.28,11.47,36.81,36.81,0,0,1,4,17.44,37.11,37.11,0,0,1-4,17.5A27.42,27.42,0,0,1,643,97.3a38.17,38.17,0,0,1-34.1,0Zm29-13.74Q642,78.37,642,68.26T637.89,53q-4.15-5.25-11.93-5.25T614,53q-4.22,5.25-4.21,15.23t4.15,15.3q4.14,5.19,11.92,5.18T637.89,83.56Z"/><path class="cls-2" d="M707.11,37a6.31,6.31,0,0,1,1.95,5q0,3.51-1.69,5.19c-1.12,1.12-3.15,1.86-6.09,2.2l-3.89.39q-7.65.78-11.21,5.19a16.94,16.94,0,0,0-3.57,11V93.28a7.18,7.18,0,0,1-2.33,5.77,8.63,8.63,0,0,1-5.83,2,8.36,8.36,0,0,1-5.77-2,7.27,7.27,0,0,1-2.27-5.77V43.11a6.9,6.9,0,0,1,2.27-5.57,8.34,8.34,0,0,1,5.64-1.95,7.81,7.81,0,0,1,5.44,1.88,6.92,6.92,0,0,1,2.08,5.38V48a19.23,19.23,0,0,1,7.32-8.82A22.51,22.51,0,0,1,700,35.72l1.82-.13A7,7,0,0,1,707.11,37Z"/><path class="cls-2" d="M761.76,36.82a7.05,7.05,0,0,1,3.82-1.1,8.16,8.16,0,0,1,5.38,2,6.27,6.27,0,0,1,2.4,5,6.63,6.63,0,0,1-.78,3l-35.39,74.16a7.25,7.25,0,0,1-6.87,4.4,7.94,7.94,0,0,1-5.25-1.88,5.89,5.89,0,0,1-2.27-4.73,8.35,8.35,0,0,1,.78-3.24l8.81-18.54L708.28,45.7a6.57,6.57,0,0,1-.65-3,6.3,6.3,0,0,1,2.53-5,8.88,8.88,0,0,1,5.77-2.08,7.64,7.64,0,0,1,4,1.1,7.36,7.36,0,0,1,2.85,3.44L741,80.19l18-39.93A7.5,7.5,0,0,1,761.76,36.82Z"/></svg>