<?xml version="1.0" encoding="UTF-8"?><svg id="katman_2" xmlns="http://www.w3.org/2000/svg" viewBox="0 0 372.05 56.5"><defs><style>.cls-1{fill:#fff;}</style></defs><g id="katman_1"><g><g><path class="cls-1" d="M89.35,27.4c0-8.5-5.3-15.3-15.1-15.3s-14.7,6.7-14.7,15.9c0,9.7,6.7,15.9,16,15.9,7,0,11.3-3.5,13.5-8.3,.4-.9-.3-1.9-1.3-1.9h-5.8c-.5,0-.9,.2-1.2,.6-1.1,1.8-2.3,3.1-5.4,3.1-4,0-7.2-2.6-7.7-7.1h20.2c.8,0,1.4-.6,1.4-1.4l.1-1.5Zm-21.6-2.2c0-4.1,2.4-6.4,6.6-6.4s6.6,2.4,6.6,6.4h-13.2Z"/><path class="cls-1" d="M246.65,27.4c0-9.2-6.5-15.3-15.7-15.3s-14.1,6.6-14.1,15.9,6.7,15.9,16,15.9c7,0,11.3-3.5,13.5-8.3,.4-.9-.3-1.9-1.3-1.9h-5.8c-.5,0-.9,.2-1.2,.6-1.1,1.8-2.3,3.1-5.4,3.1-4,0-7.2-2.6-7.7-7.1h20.2c.8,0,1.4-.6,1.4-1.4l.1-1.5Zm-21.6-2.2c0-4.1,2.4-6.4,6.6-6.4s6.6,2.4,6.6,6.4h-13.2Z"/><path class="cls-1" d="M108.05,12.1c-4.4,0-8.1,1.3-10.6,2.5-.8,.4-1.1,1.3-.7,2.1l1.1,2.3c.4,.8,1.3,1.1,2.1,.7,1.7-.8,4.3-1.7,7.3-1.7,4.2,0,6.8,1.8,6.8,5.8v.8l-7.3,.5c-6.3,.4-12.6,2.9-12.6,9.3s4.8,9.6,10.8,9.6c4.2,0,7.4-.8,9.4-2.5l.1,.2c0,.9,.7,1.5,1.6,1.5h4.7c.9,0,1.6-.7,1.6-1.6v-15.9c0-5.2-1.1-8-3.4-10.1-2.4-2.1-5.5-3.5-10.9-3.5Zm6.1,23.1c-1.1,1.5-3.4,3.4-6.6,3.4-3.4,0-5.3-1.8-5.3-4.4s2.1-4,6.4-4.3l5.5-.3v5.6h0Z"/><path class="cls-1" d="M342.45,12.1c-4.4,0-8.1,1.3-10.6,2.5-.8,.4-1.1,1.3-.7,2.1l1.1,2.3c.4,.8,1.3,1.1,2.1,.7,1.7-.8,4.3-1.7,7.3-1.7,4.2,0,6.8,1.8,6.8,5.8v.8l-7.3,.5c-6.3,.4-12.6,2.9-12.6,9.3s4.8,9.6,10.8,9.6c4.2,0,7.4-.8,9.4-2.5l.1,.2c0,.9,.7,1.5,1.6,1.5h4.7c.9,0,1.6-.7,1.6-1.6v-15.9c0-5.2-1.1-8-3.4-10.1-2.3-2.1-5.4-3.5-10.9-3.5Zm6.2,23.1c-1.1,1.5-3.4,3.4-6.6,3.4-3.4,0-5.3-1.8-5.3-4.4s2.1-4,6.4-4.3l5.5-.3v5.6Z"/><path class="cls-1" d="M142.25,24.9l-2.2-.7c-3.4-1.1-4.4-2.2-4.4-3.5,0-1.5,1.3-2.5,4-2.5,2.2,0,4.2,.8,5.9,1.7,.7,.4,1.7,.2,2.2-.5l1.8-2.7c.5-.7,.3-1.7-.5-2.2-2.3-1.4-5.2-2.4-9.7-2.4-5.9,0-10.9,3.6-10.9,9.2,0,4.5,2.3,7.2,6.9,8.7l3.5,1.2c3.9,1.3,5.1,2.2,5.1,3.8,0,1.8-1.4,2.9-4.4,2.9-2.3,0-4.9-1.1-7.9-3.2-.7-.5-1.8-.3-2.2,.5l-1.8,2.9c-.4,.7-.3,1.5,.3,2,2.7,2.3,7.3,3.8,11.4,3.8,7.5,0,12.1-4.3,12.1-10.1,0-4.3-2.4-6.7-9.2-8.9Z"/><path class="cls-1" d="M166.45,56.5c.6,0,1.2-.4,1.5-1l16-40.6c.4-1-.3-2.2-1.5-2.2h-4.9c-.7,0-1.3,.4-1.5,1l-7.6,20.7-7.7-20.7c-.2-.6-.8-1-1.5-1h-5c-1.1,0-1.9,1.1-1.5,2.2l11.8,28.6-4,10.8c-.4,1,.4,2.1,1.5,2.1h4.4v.1Z"/><path class="cls-1" d="M203.45,37.2c-5.3,0-9.1-3.7-9.1-9.3s3.9-9,8.7-9c3.1,0,5.4,1,6.8,2,.8,.6,2,.1,2.3-.8l1.1-3c.2-.6,0-1.3-.5-1.8-1.5-1.2-4.6-3.1-10.7-3.1-8.2,0-16.2,6.1-16.2,16.1s7.7,15.8,16.1,15.8c6.3,0,9.6-2.1,11.1-3.3,.5-.4,.7-1.1,.5-1.8l-1.1-2.9c-.4-1-1.5-1.3-2.4-.7-1.4,.8-3.6,1.8-6.6,1.8Z"/><path class="cls-1" d="M268.15,12.1c-5.1,0-7.4,2.6-7.4,2.6v-.4c0-.9-.7-1.6-1.6-1.6h-4.9c-.9,0-1.6,.7-1.6,1.6v27.5c0,.9,.7,1.6,1.6,1.6h4.9c.9,0,1.6-.7,1.6-1.6v-13.7c0-5.1,1.7-9.3,6.7-9.3,4.7,0,5.5,3.6,5.5,8.2v14.8c0,.9,.7,1.6,1.6,1.6h4.9c.9,0,1.6-.7,1.6-1.6V25.2c-.1-7.4-2.6-13.1-12.9-13.1Z"/><path class="cls-1" d="M297.65,41.8V19.1h5.5c.9,0,1.6-.7,1.6-1.6v-3.1c0-.9-.7-1.6-1.6-1.6h-5.5V6.7c0-1.2-1.3-2-2.3-1.4l-4.9,2.7c-.5,.3-.8,.8-.8,1.4v3.4h-3c-.9,0-1.6,.7-1.6,1.6v3.1c0,.9,.7,1.6,1.6,1.6h3v22.7c0,.9,.7,1.6,1.6,1.6h4.9c.8-.1,1.5-.8,1.5-1.6Z"/><path class="cls-1" d="M317.35,14.9v-.6c0-.9-.7-1.6-1.6-1.6h-4.8c-.9,0-1.6,.7-1.6,1.6v27.5c0,.9,.7,1.6,1.6,1.6h4.9c.9,0,1.6-.7,1.6-1.6v-13.5c0-2.3,.4-4.4,1.1-5.9,1.1-2,3-3,5.4-3,.5,0,1.4,.1,2.1,.2,.9,.1,1.7-.6,1.8-1.4l.3-4.1c.1-.8-.5-1.5-1.3-1.7-.5-.1-1.1-.2-1.8-.2-5.4-.1-7.7,2.7-7.7,2.7Z"/><path class="cls-1" d="M363.95,4.5V41.8c0,.9,.7,1.6,1.6,1.6h4.9c.9,0,1.6-.7,1.6-1.6V1.6c0-1.2-1.3-2-2.4-1.4l-4.9,2.9c-.5,.3-.8,.8-.8,1.4Z"/></g><g><g><path class="cls-1" d="M23.45,33c0,.7-.1,1.5-.4,2.2l-4.5,13.3c-.6,1.7,.7,3.5,2.5,3.5h5.2c1.1,0,2.2-.7,2.5-1.8l5.1-15.1c.2-.7,.4-1.4,.4-2.2h-10.8v.1Z"/><path class="cls-1" d="M15.25,7.9l7.8,22.9c.2,.7,.4,1.4,.4,2.2h10.9c0-.7-.1-1.5-.4-2.2L25.55,6.2c-.4-1.1-1.4-1.8-2.5-1.8h-5.2c-1.9,0-3.2,1.8-2.6,3.5Z"/></g><g><path class="cls-1" d="M5.05,33c0,.7-.1,1.5-.4,2.2l-2.4,7.3c-.6,1.7,.7,3.5,2.5,3.5h5.2c1.1,0,2.2-.7,2.5-1.8l3-9c.2-.7,.4-1.4,.4-2.2H5.05Z"/><path class="cls-1" d="M.15,17.4l4.6,13.5c.2,.7,.4,1.4,.4,2.1h10.9c0-.7-.1-1.5-.4-2.1l-5.2-15.2c-.4-1.1-1.4-1.8-2.5-1.8H2.65c-1.8-.1-3.1,1.7-2.5,3.5Z"/></g></g></g></g></svg>