<?xml version="1.0" encoding="utf-8"?>
<!-- Generator: Adobe Illustrator 22.1.0, SVG Export Plug-In . SVG Version: 6.00 Build 0)  -->
<svg version="1.1" id="Layer_1" xmlns="http://www.w3.org/2000/svg" xmlns:xlink="http://www.w3.org/1999/xlink" x="0px" y="0px"
	 viewBox="0 0 667.3 145.4" style="enable-background:new 0 0 667.3 145.4;" xml:space="preserve">
<style type="text/css">
	.st0{fill:#192935;}
	.st1{fill:#F39200;stroke:#F39200;stroke-width:9.96;stroke-miterlimit:10;}
</style>
<path class="st0" d="M71.7,95.3c1.1,1.5,1.7,3.4,1.6,5.2c0,3.1-1.8,5.7-5.5,7.8c-3.6,2-7.5,3.5-11.5,4.6c-4,1.1-8.1,1.7-12.2,1.7
	c-11.7,0-21-3.4-27.9-10.1c-6.9-6.8-10.3-16-10.3-27.8C5.6,69.8,7.2,63,10.3,56.9c2.8-5.6,7.2-10.3,12.6-13.4
	c5.6-3.2,12-4.9,18.4-4.8c6-0.1,11.9,1.4,17.2,4.3c4.9,2.9,8.8,7.1,11.3,12.2c2.8,5.8,4.2,12.2,4,18.7c0,4.3-1.9,6.4-5.7,6.4h-44
	c0.6,6.9,2.6,11.9,5.9,15.1s8.1,4.8,14.3,4.8c2.9,0.1,5.7-0.4,8.4-1.2c2.8-1,5.6-2,8.3-3.3c3-1.6,5.2-2.4,6.6-2.4
	C69.2,93.4,70.7,94.1,71.7,95.3z M29.6,56.6c-3,3.2-4.9,7.8-5.4,13.7h33.7c-0.2-6.1-1.7-10.7-4.5-13.8c-2.8-3.1-6.7-4.7-11.6-4.7
	C36.7,51.8,32.6,53.4,29.6,56.6z"/>
<path class="st0" d="M219.7,107.1c0.1,2.2-1,4.3-2.9,5.4c-1.9,1.2-4.7,1.8-8.3,1.6l-4-0.3c-16.7-1.2-25.1-10.2-25.1-26.9V54.5H172
	c-2.2,0.1-4.4-0.5-6.2-1.8c-1.5-1.3-2.3-3.2-2.2-5.2c-0.1-2,0.7-3.9,2.2-5.2c1.8-1.3,4-1.9,6.2-1.8h7.5V26.7
	c-0.1-2.4,0.8-4.7,2.5-6.4c1.9-1.7,4.4-2.5,6.9-2.4c2.5-0.1,4.9,0.7,6.7,2.4c1.7,1.7,2.7,4,2.5,6.4v13.7h12.7
	c2.2-0.1,4.4,0.5,6.2,1.8c1.5,1.3,2.3,3.2,2.2,5.2c0.1,2-0.7,3.9-2.2,5.2c-1.8,1.3-4,1.9-6.2,1.8h-12.7v33.9
	c0,7.3,3.4,11.3,10.1,11.8l4,0.3C217.2,100.7,219.7,103,219.7,107.1z"/>
<path class="st0" d="M289.8,95.3c1.1,1.5,1.7,3.3,1.6,5.2c0,3.1-1.8,5.7-5.5,7.8c-3.6,2-7.5,3.5-11.5,4.6c-4,1.1-8.1,1.7-12.2,1.7
	c-11.7,0-21-3.4-27.9-10.1c-6.9-6.8-10.3-16-10.3-27.8c-0.1-6.9,1.4-13.7,4.5-19.8c2.8-5.6,7.2-10.3,12.6-13.4
	c5.6-3.2,12-4.9,18.4-4.8c6-0.1,11.9,1.4,17.1,4.3c4.9,2.9,8.8,7.1,11.3,12.2c2.8,5.8,4.2,12.2,4,18.7c0,4.3-1.9,6.4-5.7,6.4h-44
	c0.6,6.9,2.5,11.9,5.8,15.1s8.1,4.8,14.3,4.8c2.9,0.1,5.7-0.4,8.4-1.2c2.8-0.9,5.6-2,8.3-3.3c3-1.6,5.2-2.4,6.6-2.4
	C287.2,93.4,288.8,94.1,289.8,95.3z M247.7,56.6c-3,3.2-4.8,7.8-5.4,13.7H276c-0.2-6.1-1.7-10.7-4.5-13.8c-2.8-3.1-6.7-4.7-11.6-4.7
	C254.8,51.8,250.7,53.4,247.7,56.6z"/>
<path class="st0" d="M367.6,46.1c4.3,5,6.4,12.5,6.4,22.5v36.7c0.1,2.4-0.8,4.8-2.5,6.6c-1.9,1.7-4.3,2.5-6.8,2.4
	c-2.5,0.1-5-0.7-6.9-2.4c-1.7-1.7-2.7-4.1-2.5-6.6V69.7c0-5.7-1.1-9.8-3.2-12.4s-5.5-3.9-10.1-3.9c-5.4,0-9.7,1.7-12.9,5.1
	s-4.9,7.9-4.9,13.6v33.3c0.1,2.5-0.8,4.8-2.5,6.6c-1.9,1.7-4.4,2.5-6.9,2.4c-2.5,0.1-4.9-0.7-6.8-2.4c-1.7-1.7-2.6-4.1-2.5-6.6V47.6
	c-0.1-2.4,0.8-4.6,2.5-6.3c1.9-1.6,4.4-2.5,6.9-2.3c2.3-0.1,4.6,0.7,6.3,2.3c1.6,1.6,2.5,3.7,2.5,6v4c2.4-4,5.9-7.3,10-9.4
	c4.4-2.2,9.2-3.4,14.2-3.3C356.8,38.7,363.3,41.1,367.6,46.1z"/>
<path class="st0" d="M391.6,108.2c-3-1.6-4.8-4.7-4.8-8.1c-0.1-1.8,0.5-3.5,1.6-4.8c1-1.2,2.5-1.9,4-1.9c1.7,0,4,0.8,7,2.4
	c2.8,1.3,5.7,2.5,8.7,3.4c3.3,0.9,6.7,1.3,10.1,1.2c4.2,0,7.4-0.7,9.8-2.1c2.2-1.1,3.5-3.4,3.5-5.8c0.1-1.5-0.4-2.9-1.4-4
	c-1.5-1.3-3.2-2.2-5.1-2.8c-3.6-1.2-7.3-2.2-11-2.9c-8.9-1.8-15.2-4.3-19-7.6s-5.7-7.8-5.8-13.6c0-4.3,1.3-8.4,3.9-11.9
	c2.7-3.7,6.4-6.5,10.7-8.2c4.9-2,10.1-3,15.4-2.9c4.1,0,8.1,0.5,12.1,1.6c3.7,1,7.2,2.5,10.5,4.5c3.2,2,4.8,4.6,4.8,7.9
	c0.1,1.8-0.5,3.6-1.6,5c-0.9,1.3-2.4,2-4,2c-1.1,0-2.2-0.2-3.2-0.7c-1.4-0.6-2.7-1.3-4-2c-2.4-1.3-4.9-2.4-7.5-3.3
	c-2.5-0.8-5.1-1.2-7.8-1.1c-3.7,0-6.6,0.7-8.7,2.2c-2.1,1.3-3.3,3.7-3.2,6.1c-0.1,2.4,1.2,4.6,3.3,5.7c2.2,1.3,6.4,2.6,12.7,3.9
	c5.4,1,10.6,2.6,15.7,4.8c3.8,1.8,6.5,4,8.1,6.7c1.8,3.1,2.6,6.7,2.5,10.3c0.1,6.5-3,12.6-8.4,16.3c-5.6,4.1-13.1,6.1-22.5,6.1
	C407,114.6,398.3,112.5,391.6,108.2z"/>
<path class="st0" d="M530.6,68.6v36.7c0.1,2.4-0.8,4.8-2.5,6.6c-1.9,1.7-4.3,2.5-6.8,2.4c-2.5,0.1-5-0.7-6.9-2.4
	c-1.7-1.7-2.7-4.1-2.5-6.6V68.6c0-5.3-1.1-9.1-3.2-11.6s-5.5-3.7-10.1-3.7c-5.4,0-9.7,1.7-12.9,5.1s-4.8,7.9-4.8,13.6v33.3
	c0.1,2.5-0.8,4.8-2.5,6.6c-1.9,1.7-4.4,2.5-6.9,2.4c-2.5,0.1-4.9-0.7-6.8-2.4c-1.7-1.7-2.6-4.1-2.5-6.6V16.1
	c-0.1-2.4,0.9-4.7,2.6-6.3c1.9-1.6,4.3-2.5,6.8-2.4c2.4-0.1,4.8,0.7,6.7,2.2c1.7,1.6,2.6,3.8,2.5,6.1v34.8c2.4-3.8,5.9-6.9,9.9-8.9
	c4.4-2.1,9.2-3.1,14.1-3.1C522.1,38.7,530.6,48.6,530.6,68.6z"/>
<path class="st0" d="M549.3,22.9c-2-1.9-3.1-4.5-3-7.2c-0.1-2.7,1-5.3,3-7.2c4.7-3.6,11.3-3.6,16,0c2.1,1.8,3.2,4.4,3.1,7.2
	c0.1,2.7-1,5.4-3,7.2C560.6,26.6,554,26.6,549.3,22.9L549.3,22.9z M550.7,112c-1.8-1.7-2.8-4.1-2.6-6.6V47.8c0-2.9,0.9-5.1,2.6-6.6
	c1.9-1.5,4.2-2.3,6.6-2.2c2.4-0.1,4.8,0.7,6.7,2.2c1.9,1.7,2.9,4.1,2.7,6.6v57.6c0.2,2.5-0.8,4.9-2.7,6.6c-1.9,1.6-4.3,2.4-6.7,2.3
	C554.9,114.4,552.5,113.6,550.7,112z"/>
<path class="st0" d="M643.2,43.4c5,3.3,9,8,11.5,13.5c2.8,6.3,4.2,13.2,4.1,20.1c0.2,6.8-1.2,13.6-4.1,19.8
	c-5,11.1-16.1,18.1-28.3,17.8c-4.8,0.1-9.6-1-13.9-3.3c-3.9-2.1-7.2-5.2-9.4-9.1v30.4c0.1,2.3-0.8,4.6-2.5,6.1c-4,3-9.6,3-13.5-0.1
	c-1.7-1.6-2.7-3.9-2.6-6.3V47.8c-0.1-2.4,0.8-4.7,2.5-6.4c1.8-1.6,4.2-2.5,6.6-2.3c2.5-0.1,4.9,0.7,6.7,2.4c1.7,1.7,2.6,4,2.5,6.4
	v3.7c2.1-4,5.4-7.4,9.5-9.5c4.3-2.3,9.2-3.5,14.1-3.4C632.4,38.6,638.2,40.2,643.2,43.4z M635.2,94.1c3.3-4,4.9-9.7,4.9-17.1
	c0-7.6-1.6-13.4-4.9-17.6c-3.3-4.2-7.9-6.3-13.7-6.3c-6,0-10.6,2-13.8,6.1c-3.2,4.1-4.8,9.9-4.8,17.5c0,7.5,1.6,13.2,4.8,17.3
	c3.2,4.1,7.8,6.1,13.8,6.1C627.4,100.1,631.9,98.1,635.2,94.1L635.2,94.1z"/>
<path class="st1" d="M87.7,101.6c-0.4,0.7-0.7,1.5-0.7,2.3c0,0.9,0.2,1.8,0.7,2.5c1.4,2.1,4.3,2.7,6.4,1.3c0.3-0.2,0.5-0.4,0.7-0.6
	c3.4-3.4,4.8-8.3,8-11.5l9.9-9.9c3.4-3.4,8.9-3.4,12.3-0.1c0,0,0,0,0.1,0.1l2.1,2.1c5.3,5.3,6.9,13.5,12.1,18.6c1.3,1.3,3,2,4.8,2.1
	c2.3,0,4.4-1.1,5.7-3c1.5-2.4,1.5-5.4,0-7.8c-4.4-6.7-14-7.8-19.7-13.5l-1.9-1.9c-3.4-3.4-3.4-8.9-0.1-12.3c0,0,0,0,0.1-0.1l8-8
	c4.1-4.1,11-5.7,14-10.8c0.4-0.7,0.7-1.5,0.7-2.3c0-0.9-0.2-1.8-0.7-2.5c-1.4-2.1-4.2-2.7-6.3-1.3c-0.3,0.2-0.5,0.4-0.8,0.6
	c-4.1,4.1-6.4,9.6-10.6,13.5l-7.6,7.6c-3.4,3.4-8.9,3.4-12.3,0.1c0,0,0,0-0.1-0.1l-8.7-8.7c-3.9-3.9-5.5-10.3-10.3-13.3
	c-1.5-0.9-3.3-0.9-4.8,0c-1.3,0.9-2.1,2.4-2,3.9c0,1.2,0.5,2.4,1.4,3.2c4.1,4.1,9.6,6.4,13.8,10.6l7.6,7.6c3.4,3.4,3.4,8.9,0.1,12.3
	c0,0,0,0-0.1,0.1L98.7,93.1C95.5,96.6,89.9,97.7,87.7,101.6z"/>
</svg>
