<?xml version="1.0" encoding="UTF-8"?><svg id="katman_2" xmlns="http://www.w3.org/2000/svg" viewBox="0 0 34.35 47.6"><defs><style>.cls-1{fill:#a5a5a5;}.cls-2{fill:#d6d6d6;}</style></defs><g id="katman_1"><g><g><path class="cls-1" d="M23.45,28.5c0,.7-.1,1.5-.4,2.2l-4.5,13.4c-.6,1.7,.7,3.5,2.5,3.5h5.2c1.1,0,2.2-.7,2.5-1.8l5.1-15.1c.2-.7,.4-1.4,.4-2.2h-10.8Z"/><path class="cls-2" d="M15.25,3.5l7.8,22.9c.2,.7,.4,1.4,.4,2.2h10.9c0-.7-.1-1.5-.4-2.2L25.55,1.8C25.15,.7,24.15,0,23.05,0h-5.2c-1.9-.1-3.2,1.7-2.6,3.5Z"/></g><g><path class="cls-1" d="M5.05,28.5c0,.7-.1,1.5-.4,2.2l-2.4,7.3c-.6,1.7,.7,3.5,2.5,3.5h5.2c1.1,0,2.2-.7,2.5-1.8l3-9c.2-.7,.4-1.4,.4-2.2H5.05Z"/><path class="cls-2" d="M.15,12.9l4.6,13.5c.2,.7,.4,1.4,.4,2.1h10.9c0-.7-.1-1.5-.4-2.1l-5.2-15.2c-.4-1.1-1.4-1.8-2.5-1.8H2.65c-1.8,0-3.1,1.8-2.5,3.5Z"/></g></g></g></svg>